<?xml version="1.0" encoding="utf-8"?>
<svg viewBox="0 0 512 512" width="512" height="512" xmlns="http://www.w3.org/2000/svg">
  <defs>
    <linearGradient gradientUnits="userSpaceOnUse" x1="2282.677" y1="2.313" x2="2282.677" y2="5119.056" id="gradient-10">
      <stop offset="0" style="stop-color: rgba(255, 219, 110, 1)"/>
      <stop offset="1" style="stop-color: rgba(255, 193, 8, 1)"/>
    </linearGradient>
    <linearGradient gradientUnits="userSpaceOnUse" x1="3636.12" y1="2.118" x2="3636.12" y2="2399.846" id="gradient-9">
      <stop offset="0" style="stop-color: rgba(255, 219, 110, 1)"/>
      <stop offset="1" style="stop-color: rgba(255, 193, 8, 1)"/>
    </linearGradient>
    <linearGradient gradientUnits="userSpaceOnUse" x1="1364.398" y1="1695" x2="1364.398" y2="2334.109" id="gradient-8">
      <stop offset="0" style="stop-color: rgba(255, 219, 110, 1)"/>
      <stop offset="1" style="stop-color: rgba(255, 193, 8, 1)"/>
    </linearGradient>
    <linearGradient gradientUnits="userSpaceOnUse" x1="3765" y1="2110" x2="3765" y2="2330" id="gradient-2">
      <stop offset="0" style="stop-color: rgba(255, 219, 110, 1)"/>
      <stop offset="1" style="stop-color: rgba(255, 193, 8, 1)"/>
    </linearGradient>
    <linearGradient gradientUnits="userSpaceOnUse" x1="3555.722" y1="1940" x2="3555.722" y2="2088.949" id="gradient-3">
      <stop offset="0" style="stop-color: rgba(255, 219, 110, 1)"/>
      <stop offset="1" style="stop-color: rgba(255, 193, 8, 1)"/>
    </linearGradient>
    <linearGradient gradientUnits="userSpaceOnUse" x1="3970.957" y1="1938.722" x2="3970.957" y2="2091.638" id="gradient-0">
      <stop offset="0" style="stop-color: rgba(255, 219, 110, 1)"/>
      <stop offset="1" style="stop-color: rgba(255, 193, 8, 1)"/>
    </linearGradient>
    <linearGradient gradientUnits="userSpaceOnUse" x1="2349.997" y1="1848.34" x2="2349.997" y2="2001.594" id="gradient-4">
      <stop offset="0" style="stop-color: rgba(255, 219, 110, 1)"/>
      <stop offset="1" style="stop-color: rgba(255, 193, 8, 1)"/>
    </linearGradient>
    <linearGradient gradientUnits="userSpaceOnUse" x1="2769.813" y1="1848.113" x2="2769.813" y2="2001.66" id="gradient-5">
      <stop offset="0" style="stop-color: rgba(255, 219, 110, 1)"/>
      <stop offset="1" style="stop-color: rgba(255, 193, 8, 1)"/>
    </linearGradient>
    <linearGradient gradientUnits="userSpaceOnUse" x1="3764.861" y1="1690.72" x2="3764.861" y2="1918.004" id="gradient-1">
      <stop offset="0" style="stop-color: rgba(255, 219, 110, 1)"/>
      <stop offset="1" style="stop-color: rgba(255, 193, 8, 1)"/>
    </linearGradient>
    <linearGradient gradientUnits="userSpaceOnUse" x1="3018.2" y1="1115" x2="3018.2" y2="1755.362" id="gradient-6">
      <stop offset="0" style="stop-color: rgba(255, 219, 110, 1)"/>
      <stop offset="1" style="stop-color: rgba(255, 193, 8, 1)"/>
    </linearGradient>
    <linearGradient gradientUnits="userSpaceOnUse" x1="2062.377" y1="1160.75" x2="2062.377" y2="1708.627" id="gradient-7">
      <stop offset="0" style="stop-color: rgba(255, 219, 110, 1)"/>
      <stop offset="1" style="stop-color: rgba(255, 193, 8, 1)"/>
    </linearGradient>
  </defs>
  <g transform="matrix(0.1, 0, 0, -0.1, 5.767868, 408.178809)" fill="#000000" stroke="none">
    <path d="M 3797 2755 C 3851.054 2761.359 1498.701 2775.671 1323 2755 L 1169 2749 C 1005 2743 971 2735 911 2684 C 869 2649 673 2408 644 2355 C 627 2325 571 2089 444 1509 C 283 777 267 696 267 605 C 263 155 726 -132 1137 66 C 1194 93 1232 121 1289 179 C 1354 244 1383 287 1495 479 C 1631 714 1692 794 1779 849 C 1866 905 1931 922 2085 927 C 2162 930 2233 937 2243 942 C 2289 966 2283 1052 2233 1071 C 2195 1085 2007 1081 1922 1064 C 1776 1035 1625 944 1539 833 C 1514 801 1458 714 1415 640 C 1372 566 1335 503 1334 501 C 1329 496 1106 567 1071 584 C 1015 613 1002 645 960 867 C 900 1175 882 1203 683 1297 C 617 1328 570 1356 570 1364 C 570 1386 759 2252 769 2275 C 774 2287 830 2359 893 2437 C 976 2537 1018 2581 1041 2589 C 1062 2596 1193 2600 1429 2600 C 1849 2600 1797 2615 1965 2440 C 2166 2230 2137 2240 2560 2240 C 2983 2240 2954 2230 3155 2440 C 3323 2615 3271 2600 3693 2600 C 4093 2600 4095 2600 4148 2532 C 4166 2510 4191 2489 4204 2486 C 4260 2472 4310 2520 4296 2575 C 4286 2614 4206 2695 4152 2721 C 4111 2741 4085 2745 3951 2750 L 3797 2755 Z" style="fill: url(#gradient-10);"/>
    <path d="M4358 2383 c-25 -29 -29 -57 -14 -94 13 -32 206 -898 206 -926 0 -7 -51 -37 -113 -66 -199 -94 -217 -122 -277 -430 -44 -227 -55 -254 -118 -286 -59 -29 -255 -86 -259 -76 -9 26 -168 285 -204 332 -82 106 -237 198 -381 227 -60 13 -148 16 -401 16 -313 0 -325 -1 -351 -21 -34 -27 -36 -77 -4 -107 22 -20 33 -21 378 -24 337 -4 358 -5 414 -26 155 -58 220 -128 391 -423 111 -192 141 -235 205 -299 286 -287 767 -217 954 140 53 102 70 171 69 285 0 91 -16 172 -177 902 -100 458 -184 820 -195 842 -11 21 -27 41 -36 45 -31 11 -72 6 -87 -11z" style="fill: url(#gradient-9);"/>
    <path d="M1309 2330 c-121 -20 -218 -109 -254 -235 -42 -143 28 -298 170 -373 43 -23 62 -27 140 -27 78 0 97 4 140 27 68 35 123 92 154 158 35 75 36 192 2 261 -66 137 -207 212 -352 189z" style="fill: url(#gradient-8);"/>
    <path d="M3710 2310 c-16 -16 -20 -33 -20 -90 0 -83 18 -110 74 -110 51 0 76 36 76 110 0 74 -25 110 -76 110 -21 0 -42 -8 -54 -20z" style="fill: url(#gradient-2);"/>
    <path d="M3483 2080 c-45 -18 -55 -72 -22 -114 19 -24 26 -26 94 -26 68 0 75 2 94 26 34 43 26 86 -20 109 -31 16 -111 19 -146 5z" style="fill: url(#gradient-3);"/>
    <path d="M3886 2069 c-33 -26 -36 -79 -6 -109 27 -27 147 -29 179 -2 33 26 31 79 -3 109 -37 32 -131 33 -170 2z" style="fill: url(#gradient-0);"/>
    <path d="M2272 1980 c-30 -28 -29 -80 1 -108 35 -33 119 -31 152 3 14 13 25 36 25 50 0 14 -11 37 -25 50 -32 33 -120 36 -153 5z" style="fill: url(#gradient-4);"/>
    <path d="M2695 1975 c-14 -13 -25 -36 -25 -50 0 -14 11 -37 25 -50 34 -35 121 -36 153 -2 29 31 29 77 -1 105 -35 33 -119 31 -152 -3z" style="fill: url(#gradient-5);"/>
    <path d="M3716 1899 c-24 -19 -26 -26 -26 -94 0 -68 2 -75 26 -94 33 -26 65 -27 94 -3 29 23 39 115 20 163 -21 49 -71 62 -114 28z" style="fill: url(#gradient-1);"/>
    <path d="M2942 1745 c-69 -19 -86 -29 -139 -78 -65 -60 -95 -126 -101 -217 -5 -99 21 -171 86 -238 72 -73 129 -97 232 -97 73 0 93 4 142 28 62 30 115 83 150 149 19 36 23 58 23 138 0 79 -4 103 -23 142 -68 138 -227 212 -370 173z" style="fill: url(#gradient-6);"/>
    <path d="M2014 1687 c-24 -21 -27 -32 -32 -100 l-5 -77 -68 0 c-83 0 -122 -25 -122 -80 0 -52 30 -70 118 -70 l72 0 5 -82 c4 -69 8 -84 28 -100 29 -23 71 -23 100 0 20 16 24 31 28 100 l5 82 72 0 c81 0 109 15 121 62 5 22 0 33 -24 58 -28 28 -36 30 -100 30 l-70 0 -4 76 c-3 69 -6 79 -31 100 -35 30 -59 30 -93 1z" style="fill: url(#gradient-7);"/>
  </g>
  <path style="stroke: rgb(0, 0, 0); fill: rgb(255, 219, 110); fill-opacity: 0.33; stroke-opacity: 0;" d="M 429.266 152.379 L 447.364 183.582 L 471.078 284.678 C 471.078 284.678 437.379 302.151 436.755 304.023 C 436.131 305.895 413.665 358.94 413.665 358.94 L 388.703 371.421 C 388.703 371.421 353.132 323.369 352.508 323.369 C 351.884 323.369 321.93 309.64 321.306 309.64 C 320.682 309.64 268.262 311.512 268.262 311.512 L 253.785 302.604 L 221.756 302.511 L 188.341 311.749 L 131.332 377.318 L 92.572 346.547 L 55.254 275.74 C 55.254 275.74 73.526 189.792 73.526 188.438 C 73.526 187.084 105.334 139.712 105.334 139.712 L 392.278 140.388 L 429.266 152.379 Z"/>
</svg>